<svg width="16" height="16" viewBox="0 0 16 16" fill="none" xmlns="http://www.w3.org/2000/svg">
<path d="M8.66699 3.49967C9.40033 3.49967 10.0003 2.89967 10.0003 2.16634C10.0003 1.43301 9.40033 0.833008 8.66699 0.833008C7.93366 0.833008 7.33366 1.43301 7.33366 2.16634C7.33366 2.89967 7.93366 3.49967 8.66699 3.49967ZM6.20033 5.76634L4.33366 15.1663H5.73366L6.93366 9.83301L8.33366 11.1663V15.1663H9.66699V10.1663L8.26699 8.83301L8.66699 6.83301C9.53366 7.83301 10.867 8.49967 12.3337 8.49967V7.16634C11.067 7.16634 10.0003 6.49967 9.46699 5.56634L8.80032 4.49967C8.42699 3.90634 7.68033 3.66634 7.03366 3.93967L3.66699 5.36634V8.49967H5.00033V6.23301L6.20033 5.76634Z" fill="#D1D5DB"/>
</svg>
