<svg width="16" height="16" viewBox="0 0 16 16" fill="none" xmlns="http://www.w3.org/2000/svg">
<path d="M8.66602 3.50065C9.39935 3.50065 9.99935 2.90065 9.99935 2.16732C9.99935 1.43398 9.39935 0.833984 8.66602 0.833984C7.93268 0.833984 7.33268 1.43398 7.33268 2.16732C7.33268 2.90065 7.93268 3.50065 8.66602 3.50065ZM6.19935 5.76732L4.33268 15.1673H5.73268L6.93268 9.83398L8.33268 11.1673V15.1673H9.66602V10.1673L8.26602 8.83398L8.66602 6.83398C9.53268 7.83398 10.866 8.50065 12.3327 8.50065V7.16732C11.066 7.16732 9.99935 6.50065 9.46602 5.56732L8.79935 4.50065C8.42602 3.90732 7.67935 3.66732 7.03268 3.94065L3.66602 5.36732V8.50065H4.99935V6.23398L6.19935 5.76732Z" fill="#9CA3AF"/>
</svg>
