<svg width="16" height="16" viewBox="0 0 16 16" fill="none" xmlns="http://www.w3.org/2000/svg">
<path d="M2.83301 7C2.27967 7 1.83301 7.44667 1.83301 8C1.83301 8.55333 2.27967 9 2.83301 9C3.38634 9 3.83301 8.55333 3.83301 8C3.83301 7.44667 3.38634 7 2.83301 7ZM2.83301 3C2.27967 3 1.83301 3.44667 1.83301 4C1.83301 4.55333 2.27967 5 2.83301 5C3.38634 5 3.83301 4.55333 3.83301 4C3.83301 3.44667 3.38634 3 2.83301 3ZM2.83301 11C2.27967 11 1.83301 11.4533 1.83301 12C1.83301 12.5467 2.28634 13 2.83301 13C3.37967 13 3.83301 12.5467 3.83301 12C3.83301 11.4533 3.38634 11 2.83301 11ZM4.83301 12.6667H14.1663V11.3333H4.83301V12.6667ZM4.83301 8.66667H14.1663V7.33333H4.83301V8.66667ZM4.83301 3.33333V4.66667H14.1663V3.33333H4.83301Z" fill="#1A56DB"/>
</svg>
